<?xml version="1.0" encoding="UTF-8"?>
<svg version="1.1" xmlns="http://www.w3.org/2000/svg" width="1879" height="521">
<path d="M0 0 C620.07 0 1240.14 0 1879 0 C1879 171.93 1879 343.86 1879 521 C1258.93 521 638.86 521 0 521 C0 349.07 0 177.14 0 0 Z " fill="#FEFEFE" transform="translate(0,0)"/>
<path d="M0 0 C0.721875 0.13390137 1.44375 0.26780273 2.1875 0.40576172 C56.18003161 10.79378377 103.80575038 43.03301653 135 88 C162.04727385 128.76126796 171.34485641 172.5000328 171.51123047 220.82446289 C171.65092999 249.05011517 176.66309912 273.68596442 196.71484375 294.76953125 C208.47576979 306.24899923 223.01551124 314.1637227 239 318 C239.74121094 318.19078125 240.48242188 318.3815625 241.24609375 318.578125 C262.97314652 321.90652457 287.21219907 317.32593859 305.46875 304.92578125 C310.65699393 300.97855246 316.06136221 296.75262327 319.83305359 291.39729309 C324.83742475 287.60911898 329.85125655 288.34412238 335.96020508 288.43237305 C337.27766724 288.43164291 338.59512939 288.43091278 339.95251465 288.43016052 C343.55781805 288.42872766 347.16228738 288.45809489 350.76739717 288.49303031 C354.53765255 288.52431628 358.30792769 288.52722629 362.07829285 288.53315735 C369.21462789 288.54868931 376.35057931 288.58970866 383.48674554 288.6399048 C391.61240835 288.6958187 399.73808962 288.72328985 407.86389697 288.74838197 C424.57615577 288.80062539 441.28802891 288.88855464 458 289 C457.5205453 290.76558298 457.0405407 292.53101663 456.56030273 294.29638672 C456.29305893 295.2795285 456.02581512 296.26267029 455.75047302 297.27560425 C448.70007085 322.87024277 435.13307556 346.83593342 418 367 C417.12286821 368.07223847 416.24663049 369.1452087 415.37109375 370.21875 C388.53515502 402.76320077 352.16475588 424.10502197 312 436 C311.29375488 436.20995605 310.58750977 436.41991211 309.85986328 436.63623047 C260.70917403 450.76958809 203.68616294 443.57048295 159 419 C142.06812858 409.13904094 126.63786014 397.97975446 112.49169922 384.42871094 C111.11834504 383.11334782 109.7335176 381.8099915 108.34765625 380.5078125 C69.71731628 343.28110258 49.81772421 289.74911237 48.60546875 236.921875 C48.53668349 234.43617352 48.46699375 231.95049693 48.39648438 229.46484375 C48.28950886 225.61029807 48.18763314 221.75594626 48.10131836 217.90087891 C47.67150802 192.52243897 47.67150802 192.52243897 39.3125 168.8125 C38.97001221 168.15942871 38.62752441 167.50635742 38.2746582 166.83349609 C25.94244095 143.87621312 7.91502325 130.44760568 -16.76171875 122.796875 C-38.2065813 117.5197315 -62.00210877 120.67130639 -81.0546875 131.78125 C-101.44093944 144.85335048 -115.81691996 163.60985008 -121.04589844 187.48876953 C-122.17925462 193.27551106 -122.29647539 198.91516602 -122.30859375 204.796875 C-122.33378497 207.07942929 -122.35918246 209.36198132 -122.38476562 211.64453125 C-122.4132356 215.17821477 -122.43729488 218.71185833 -122.45629883 222.24560547 C-122.55051204 236.95736116 -123.29085056 251.19928184 -125.64303589 265.7322998 C-125.99019443 267.93770777 -126.29387455 270.14439557 -126.58056641 272.35839844 C-129.26095215 292.61201227 -137.23781989 314.12444363 -147 332 C-147.38655762 332.70898438 -147.77311523 333.41796875 -148.17138672 334.1484375 C-153.43246935 343.66471549 -159.20167878 352.50209847 -166 361 C-166.70640625 361.89847656 -167.4128125 362.79695313 -168.140625 363.72265625 C-185.36483793 385.25292242 -205.00738732 402.40734723 -229 416 C-229.59216309 416.3412793 -230.18432617 416.68255859 -230.79443359 417.03417969 C-253.79203278 430.22073176 -279.73780245 438.6330516 -306 442 C-306.91652344 442.13019531 -307.83304688 442.26039063 -308.77734375 442.39453125 C-339.98338777 446.09192983 -372.52607927 441.35299053 -402 431 C-403.22589844 430.57203125 -404.45179688 430.1440625 -405.71484375 429.703125 C-458.80011962 409.75948545 -499.89218043 368.43346917 -523.140625 317.25390625 C-525.01485688 313.02324667 -526.77404086 308.75526356 -528.4375 304.4375 C-528.68459717 303.80714844 -528.93169434 303.17679687 -529.1862793 302.52734375 C-530.8757407 297.97874748 -531.45537412 293.78088017 -532 289 C-514.7188408 288.74248882 -497.43828427 288.54879792 -480.15564251 288.43006611 C-472.13004425 288.37345904 -464.10564128 288.29635599 -456.08081055 288.17016602 C-449.08232837 288.06016822 -442.08471208 287.98947709 -435.08538944 287.96502656 C-431.38226316 287.9507428 -427.68161281 287.91743749 -423.97928429 287.83696938 C-398.40355 287.30221282 -398.40355 287.30221282 -392.23994923 292.83065319 C-390.2474752 295.05974975 -388.6413094 297.50604931 -387 300 C-371.15234906 313.65591329 -351.76828338 319.28118086 -331.25 319.4375 C-330.12553467 319.4478125 -329.00106934 319.458125 -327.8425293 319.46875 C-305.61723315 319.2338896 -285.59525996 309.29279186 -269.82421875 293.98046875 C-253.09938769 276.89267086 -246.73792251 253.87375445 -246.69140625 230.5703125 C-246.66622382 228.20312278 -246.64082616 225.83593533 -246.61523438 223.46875 C-246.58672835 219.81218186 -246.56265892 216.1556536 -246.54370117 212.49902344 C-246.42222647 192.81211302 -245.57392575 173.38409914 -240.25 154.3125 C-239.99395996 153.36810059 -239.73791992 152.42370117 -239.47412109 151.45068359 C-231.91429356 124.31459379 -219.70370389 98.99367992 -202 77 C-200.77410156 75.46859375 -200.77410156 75.46859375 -199.5234375 73.90625 C-188.48031571 60.36545154 -176.12300081 48.29171773 -162 38 C-161.45633789 37.60087402 -160.91267578 37.20174805 -160.35253906 36.79052734 C-114.279501 3.21116897 -56.19879268 -10.68847071 0 0 Z " fill="#000000" transform="translate(1124,40)"/>
<path d="M0 0 C9.9687084 9.02231203 18.72913348 18.71617664 26.69726562 29.53613281 C27.33019531 30.385625 27.963125 31.23511719 28.61523438 32.11035156 C41.30408065 49.67728977 52.22477836 70.10036984 58.44726562 90.91113281 C58.68960938 91.70261719 58.93195312 92.49410156 59.18164062 93.30957031 C59.69726562 95.53613281 59.69726562 95.53613281 59.69726562 99.53613281 C42.23381113 99.74659696 24.77075369 99.90518929 7.30632019 100.00244236 C-0.8032171 100.04880403 -8.91196535 100.11198197 -17.02099609 100.21508789 C-24.09086202 100.30493785 -31.16015644 100.36289023 -38.23057747 100.38292927 C-41.9729197 100.39463969 -45.71362737 100.42205328 -49.45544434 100.48770332 C-53.63834362 100.56049337 -57.81842225 100.56203324 -62.00195312 100.55786133 C-63.85233437 100.60639755 -63.85233437 100.60639755 -65.74009705 100.65591431 C-74.00484441 100.56676045 -74.00484441 100.56676045 -77.8085022 97.54635429 C-79.81212076 95.29627038 -81.55764049 92.98817182 -83.30273438 90.53613281 C-101.84051201 73.95695966 -125.52659681 68.45979951 -149.75 69.36572266 C-166.61311599 70.49143564 -182.15591015 78.21837203 -195.30273438 88.53613281 C-195.98464844 89.05433594 -196.6665625 89.57253906 -197.36914062 90.10644531 C-212.45472409 102.32842487 -223.04624377 122.82345194 -225.09324646 141.98040771 C-225.45689388 146.41685854 -225.4598794 150.84873451 -225.47851562 155.29785156 C-225.49853116 157.39364812 -225.51981973 159.48943283 -225.54223633 161.58520508 C-225.55340485 162.67004181 -225.56457336 163.75487854 -225.57608032 164.87258911 C-225.81197017 185.06148766 -226.61529192 204.65199275 -230.30273438 224.53613281 C-230.44549805 225.35549316 -230.58826172 226.17485352 -230.73535156 227.01904297 C-239.79029538 277.65437647 -273.34362164 324.3093808 -314.69555664 353.73144531 C-361.46421142 386.25740519 -418.59730327 397.86472679 -474.57714844 388.4230957 C-516.78235253 380.56192809 -552.85716629 359.10046062 -583.30273438 329.53613281 C-583.89997314 328.95935791 -584.49721191 328.38258301 -585.11254883 327.78833008 C-588.9198789 324.05641314 -592.36507798 320.19724231 -595.61523438 315.97363281 C-596.31398682 315.07136963 -596.31398682 315.07136963 -597.02685547 314.15087891 C-598.46158216 312.28626792 -599.88440122 310.41323667 -601.30273438 308.53613281 C-601.74053223 307.95911621 -602.17833008 307.38209961 -602.62939453 306.78759766 C-615.25798926 290.01816579 -624.77810074 271.36194797 -632.11523438 251.72363281 C-632.39318848 250.98395264 -632.67114258 250.24427246 -632.95751953 249.48217773 C-637.02100273 238.25998965 -638.79444834 227.77230117 -638.91210938 215.82910156 C-638.92059151 215.15379206 -638.92907364 214.47848255 -638.93781281 213.78270912 C-638.98232834 210.22139792 -639.0103193 206.66043794 -639.0234375 203.09887695 C-639.04000128 199.44175704 -639.11241832 195.78792738 -639.19735336 192.13184643 C-639.25337051 189.29462719 -639.26885443 186.45820304 -639.27344513 183.62047768 C-639.28682106 181.62217404 -639.34262432 179.6242978 -639.39935303 177.62675476 C-639.33522087 168.92189038 -639.33522087 168.92189038 -636.5489502 165.18228149 C-626.83951588 156.97085986 -614.72079626 158.21083489 -602.74804688 158.20019531 C-601.03848157 158.19375617 -599.32891733 158.18702701 -597.61935425 158.18002319 C-594.04715421 158.1680949 -590.47505056 158.16433786 -586.90283203 158.16552734 C-582.35152436 158.1657305 -577.80084129 158.1384119 -573.24968147 158.10398293 C-569.72180403 158.08162275 -566.1940749 158.07769255 -562.66613388 158.0787468 C-560.98938721 158.07640518 -559.31263553 158.06766392 -557.63595963 158.05208206 C-547.10644903 157.96336805 -536.94301717 157.97590417 -528.36523438 164.91113281 C-521.88001379 173.16504992 -520.2197684 179.78381697 -519.49023438 189.97363281 C-517.51395804 212.6215928 -507.66096593 233.47483171 -490.30273438 248.53613281 C-469.93153553 265.14989534 -447.05469806 269.46666824 -421.30273438 267.53613281 C-402.05788266 265.25338269 -381.62380074 252.64843116 -369.30273438 237.97363281 C-356.18102065 220.86394727 -350.27758897 202.71275014 -350.05664062 181.30175781 C-350.0236604 179.09472322 -349.99044956 176.88769206 -349.95703125 174.68066406 C-349.91005521 171.25214332 -349.86566903 167.823632 -349.82592773 164.39501953 C-349.10405102 104.85531961 -331.33915788 50.88336953 -289.30273438 7.53613281 C-288.5215625 6.715 -287.74039062 5.89386719 -286.93554688 5.04785156 C-222.11883879 -61.72950428 -112.65124168 -73.21594416 0 0 Z " fill="#000000" transform="translate(638.302734375,91.4638671875)"/>
<path d="M0 0 C1.28390625 0.19464844 2.5678125 0.38929687 3.890625 0.58984375 C56.87145411 9.50793152 106.12345022 40.48011657 137.29370117 84.15039062 C153.77170327 107.6756041 171.60616854 138.63769407 172.24047852 167.98608398 C172.26622452 169.14426132 172.29197052 170.30243866 172.3184967 171.49571228 C172.4032206 176.75559157 172.46842628 182.01531038 172.51489258 187.27563477 C172.5416886 190.04922638 172.59050763 192.82111098 172.65844727 195.59399414 C172.75637834 199.60328089 172.78848986 203.61070026 172.81640625 207.62109375 C172.87363609 209.47449623 172.87363609 209.47449623 172.93202209 211.36534119 C172.91314865 219.72011754 172.91314865 219.72011754 170.3744812 223.27835083 C168.32361132 225.14901301 166.39342492 226.59555832 164 228 C163.09252518 228.54514755 162.18505035 229.0902951 161.25007629 229.65196228 C157.32485979 231.28002865 153.85278396 231.43608492 149.67480469 231.41992188 C148.45400459 231.43262619 148.45400459 231.43262619 147.20854187 231.44558716 C144.52949196 231.46890231 141.85101852 231.46998038 139.171875 231.46875 C137.2986834 231.47585663 135.42549397 231.48355636 133.55230713 231.49182129 C129.62839713 231.5052548 125.70468825 231.50684072 121.78076172 231.50097656 C116.77289145 231.49509199 111.76599452 231.52562569 106.75831223 231.56609344 C102.88902666 231.59205507 99.01997252 231.59484001 95.15061188 231.59120178 C93.30557059 231.59288618 91.46051782 231.60246272 89.61556244 231.62034607 C69.23123157 231.79614768 69.23123157 231.79614768 61.11273193 224.24450684 C54.54069289 217.3787844 53.60495655 210.17415153 53.125 201.0625 C51.44962575 177.7913675 42.27056888 158.4792863 25.25 142.3125 C15.98139579 134.30454056 5.64376066 128.7191696 -6 125 C-6.76828125 124.74033447 -7.5365625 124.48066895 -8.328125 124.21313477 C-16.15306651 121.78298838 -23.59425355 121.49625991 -31.75 121.5625 C-32.74645035 121.56855759 -32.74645035 121.56855759 -33.76303101 121.57473755 C-54.87970123 121.75502081 -73.35219694 128.47709442 -89 143 C-89.63908011 143.7667401 -90.27816023 144.53348021 -90.93660641 145.32345486 C-94.96730016 150.07025654 -97.88482 152.55949809 -104.20741272 153.08229065 C-106.60965608 153.10817321 -109.01275471 153.08490629 -111.41430664 153.02172852 C-113.39137604 153.02369987 -113.39137604 153.02369987 -115.40838623 153.02571106 C-118.9977082 153.02827796 -122.58428529 152.97563182 -126.17297292 152.91254544 C-129.93242665 152.85601678 -133.69195381 152.85097622 -137.45176697 152.84031677 C-144.56005439 152.81242054 -151.6670857 152.73867373 -158.7748217 152.64817137 C-166.87143341 152.54733106 -174.96810734 152.49803008 -183.06519139 152.45291245 C-199.71086115 152.35901416 -216.35526992 152.20086611 -233 152 C-232.5273442 150.24625246 -232.05317365 148.49291312 -231.57836914 146.73974609 C-231.31447891 145.76331146 -231.05058868 144.78687683 -230.77870178 143.78085327 C-225.45004622 124.75147696 -216.36309078 106.12179287 -205 90 C-204.37206543 89.09241943 -204.37206543 89.09241943 -203.73144531 88.16650391 C-197.18053857 78.73348957 -189.99650923 70.22984202 -182 62 C-181.4440918 61.41831055 -180.88818359 60.83662109 -180.31542969 60.23730469 C-172.41949016 51.98468805 -164.30701793 44.61979985 -155 38 C-153.41638672 36.83984375 -153.41638672 36.83984375 -151.80078125 35.65625 C-108.42549989 4.73888516 -52.61562439 -8.39948221 0 0 Z " fill="#000000" transform="translate(1707,39)"/>
</svg>
